<svg xmlns="http://www.w3.org/2000/svg" viewBox="0 0 1986.81569 1138.67973"><defs><style>.cls-1{fill:none;}.cls-2{fill:#ffd9ce;}.cls-3{fill:#ff422e;}</style></defs><g id="character"><polygon class="cls-1" points="763.124 106.593 771.392 107.693 763.949 105.982 763.124 106.593"/><path class="cls-1" d="M906.31635,638.27875a13.11943,13.11943,0,0,1-14.85263,13.00607l-116.17-15.465V1255.5446h513.1967V529.886H906.31635Z" transform="translate(-18.86204 -503.64391)"/><polygon class="cls-2" points="861.212 33.938 763.949 105.982 771.392 107.693 861.212 119.651 861.212 33.938"/><path class="cls-3" d="M1296.56721,503.64391H887.13035C871.994,510.12161,760.5536,595.15405,749.0511,609.08166v654.5209a18.19657,18.19657,0,0,0,18.16594,18.18466h529.35017a18.19657,18.19657,0,0,0,18.166-18.18466V521.82683A18.19541,18.19541,0,0,0,1296.56721,503.64391ZM782.81141,609.62552l97.26294-72.04335v85.7126l-89.8202-11.95751-8.268-1.1006Zm505.679,645.91908H775.29371V635.81981l116.17,15.465a13.12127,13.12127,0,0,0,14.85263-13.00607V529.886h382.17406Z" transform="translate(-18.86204 -503.64391)"/><path class="cls-3" d="M955.64873,747.36723l-18.25714-16.5008,18.25665-16.50018a8.74791,8.74791,0,0,0-11.73125-12.98L924.3455,719.07533l-19.57138-17.68912a8.7477,8.7477,0,0,0-11.73063,12.98l18.256,16.50018-18.25727,16.5008a8.74768,8.74768,0,1,0,11.73124,12.97943l19.572-17.68975,19.57261,17.68975a8.74747,8.74747,0,0,0,11.73062-12.97943Z" transform="translate(-18.86204 -503.64391)"/><path class="cls-3" d="M1177.31027,740.336,1159.053,723.8346l18.25665-16.50018A8.74748,8.74748,0,1,0,1165.579,694.355l-19.57137,17.68913-19.572-17.68913a8.74727,8.74727,0,1,0-11.73,12.97943l18.25665,16.50018L1114.70565,740.336a8.747,8.747,0,1,0,11.73,12.97881l19.57261-17.68912,19.57137,17.68912a8.74725,8.74725,0,1,0,11.73063-12.97881Z" transform="translate(-18.86204 -503.64391)"/><path class="cls-2" d="M938.883,979.09313a24.83736,24.83736,0,0,0,18.7642,8.11484c14.00506,0,21.36849-6.17572,26.26443-22.02671,5.328-17.25159,6.62292-43.39991,8.26192-76.505.35823-7.2327.72551-14.63913,1.152-22.34133q-4.704,1.19793-9.42051,2.647A203.28461,203.28461,0,0,0,963.99,876.29226a8.77769,8.77769,0,0,1,.47682,2.63551l1.89922,74.3728a8.74758,8.74758,0,0,1-8.52028,8.9686c-.07621.00186-.15254.0031-.22813.0031a8.74849,8.74849,0,0,1-8.74047-8.52512l-1.77159-69.3776A228.66329,228.66329,0,0,0,919.36,901.77492C919.17781,920.70677,922.24962,961.73919,938.883,979.09313Z" transform="translate(-18.86204 -503.64391)"/><path class="cls-3" d="M1177.058,898.98142c-34.357-28.74084-70.70743-46.56615-108.04116-52.98263-30.01145-5.15616-60.61284-2.97739-90.95538,6.47819-51.35862,16.00465-83.87807,47.09067-85.237,48.40613a8.7455,8.7455,0,0,0,9.391,14.37829c.26914,5.17066.73926,11.12011,1.5452,17.44279,3.41493,26.79391,10.97674,46.46813,22.475,58.47644a42.054,42.054,0,0,0,31.41154,13.52279c21.7805,0,35.83934-11.23931,42.98071-34.35993,5.97721-19.35229,7.31919-46.46986,9.0194-80.80142.42713-8.634.86889-17.51243,1.40667-26.83257,53.4867-8.23219,105.43527,8.41384,154.77856,49.69062a8.74745,8.74745,0,0,0,11.22543-13.4187ZM992.17356,888.67629c-1.639,33.10506-2.9339,59.25338-8.26192,76.505-4.89594,15.851-12.25937,22.02671-26.26443,22.02671a24.83736,24.83736,0,0,1-18.7642-8.11484c-16.63339-17.35394-19.7052-58.38636-19.523-77.31821a228.66329,228.66329,0,0,1,27.74556-17.40537l1.77159,69.3776a8.74849,8.74849,0,0,0,8.74047,8.52512c.07559,0,.15192-.00124.22813-.0031a8.74758,8.74758,0,0,0,8.52028-8.9686l-1.89922-74.3728a8.77769,8.77769,0,0,0-.47682-2.63551,203.28461,203.28461,0,0,1,19.91511-7.31027q4.71831-1.45294,9.42051-2.647C992.89907,874.03716,992.53179,881.44359,992.17356,888.67629Z" transform="translate(-18.86204 -503.64391)"/><polygon class="cls-2" points="1320.692 894.826 684.183 828.404 720.986 523.947 1357.496 590.368 1320.692 894.826"/><path class="cls-3" d="M768.66794,887.53641a8.74709,8.74709,0,0,0-12.22863-1.87023c-.9384.6897-23.25557,17.21231-47.02054,45.67124a271.90917,271.90917,0,0,0-34.45188,51.85725c-11.18367,22.26326-18.05033,44.92531-20.40877,67.35558-4.96558,47.23109,9.75272,93.35907,43.77437,137.36653-.0508.72118-.08587,1.44607-.08587,2.17939a30.51177,30.51177,0,1,0,8.11905-20.712c-27.00493-37.9025-38.574-77.11974-34.41916-116.90023,4.8149-46.09481,30.16571-85.018,50.58477-109.55319,22.43873-26.96268,44.05591-43.01033,44.27127-43.16943A8.747,8.747,0,0,0,768.66794,887.53641Z" transform="translate(-18.86204 -503.64391)"/><path class="cls-3" d="M1408.67187,1050.55025c-2.35844-22.43027-9.2251-45.09232-20.40816-67.35558a271.9126,271.9126,0,0,0-34.45249-51.85725c-23.765-28.45893-46.08214-44.98154-47.01992-45.67124a8.74763,8.74763,0,0,0-10.359,14.09874c.21363.15613,21.5318,15.93935,43.9512,42.78641,20.53343,24.58912,46.02935,63.603,50.88911,109.82788,3.90141,37.10811-5.88043,73.7255-29.1075,109.24415a30.52942,30.52942,0,1,0,13.884,10.75035C1402.09269,1133.09231,1413.05606,1092.25183,1408.67187,1050.55025Z" transform="translate(-18.86204 -503.64391)"/><path class="cls-3" d="M860.93792,1245.90612l-44.41935-4.97822c-8.21347-.91909-15.26959-4.59532-14.25549-13.64747l10.57613-94.36953c.65712-5.86717,6.86431-11.28169,14.23975-10.45581l45.425,5.09086c6.36989.71337,11.17042,6.34263,10.51268,12.21042-.67644,6.0347-6.52837,9.79138-12.89715,9.0769l-34.86574-3.90736-3.024,26.98858L863.91,1175.465c5.86593.657,11.059,5.82045,10.38257,11.85516-.67644,6.03359-6.23073,10.16486-12.76766,9.43216l-31.6808-3.55111-3.06215,27.32215,36.54168,4.09484c6.20236.69528,11.20734,6.00819,10.56832,11.70894C873.21612,1242.36059,867.30793,1246.62073,860.93792,1245.90612Z" transform="translate(-18.86204 -503.64391)"/><path class="cls-3" d="M952.91756,1205.12673l19.09406,37.10251c4.593,9.00131-4.61652,16.965-12.159,16.119a11.46048,11.46048,0,0,1-9.308-6.30508l-23.21926-47.239-11.399-1.27671-4.30128,38.38541c-.65712,5.86593-6.77162,10.44181-13.141,9.72794-6.20112-.69466-11.00276-6.324-10.32631-12.3575l10.82011-96.55081c.73208-6.53742,7.21882-11.41106,14.09081-10.64094l29.16511,3.26847c31.51315,3.531,39.56083,22.59361,37.58837,40.19439C977.96231,1192.14842,967.85866,1202.04823,952.91756,1205.12673ZM939.1783,1156.5724l-17.7672-1.99069-3.11729,27.82489,18.77337,2.1038c11.56484,1.296,18.3118-2.86921,19.28712-11.58664C957.14449,1165.88338,954.432,1158.28228,939.1783,1156.5724Z" transform="translate(-18.86204 -503.64391)"/><path class="cls-3" d="M1054.32813,1216.4907l19.09467,37.10313c4.59223,9.00067-4.61651,16.96374-12.16023,16.119a11.45952,11.45952,0,0,1-9.30751-6.30508l-23.21913-47.23961-11.39854-1.27668-4.30066,38.38474c-.657,5.86657-6.77286,10.44307-13.14151,9.72908-6.20236-.69516-11.00214-6.3233-10.3257-12.358l10.81875-96.54956c.73332-6.53819,7.21944-11.41242,14.09217-10.64156l29.16561,3.26785c31.51191,3.53227,39.56033,22.59361,37.58788,40.19439C1079.37337,1203.51363,1069.26972,1213.4122,1054.32813,1216.4907ZM1040.59,1167.937l-17.76782-1.99129-3.11716,27.82608,18.77275,2.10321c11.56607,1.29539,18.31167-2.86921,19.28947-11.58553C1058.55555,1177.24734,1055.84371,1169.64625,1040.59,1167.937Z" transform="translate(-18.86204 -503.64391)"/><path class="cls-3" d="M1092.50224,1228.74462l3.71988-33.188c2.667-23.8019,17.15729-42.54553,48.50229-39.03271,31.34673,3.51233,41.3282,24.99754,38.66,48.80055l-3.71926,33.18858c-2.74208,24.47289-19.523,42.45-48.52162,39.19974C1102.14666,1274.46369,1089.75954,1253.21813,1092.50224,1228.74462Zm27.18659-30.559-3.71988,33.18922c-1.50233,13.41015,3.81665,23.51145,17.559,25.05194,13.74732,1.53925,21.1675-7.13419,22.67044-20.5431l3.71926-33.1892c1.52166-13.57731-2.828-23.22954-17.579-24.88379C1127.5888,1176.15827,1121.21048,1184.61015,1119.68883,1198.18558Z" transform="translate(-18.86204 -503.64391)"/><path class="cls-3" d="M1258.8263,1239.40736l19.09517,37.10261c4.59174,9.00072-4.61763,16.96426-12.15949,16.119a11.45931,11.45931,0,0,1-9.30812-6.3052l-23.22038-47.23837-11.399-1.2778-4.30128,38.38588c-.6565,5.86593-6.7705,10.44255-13.13916,9.72794-6.20174-.69515-11.00338-6.32392-10.32693-12.358l10.81937-96.549c.73146-6.53816,7.21944-11.41242,14.09093-10.64279l29.16685,3.26908c31.51376,3.53163,39.56095,22.593,37.58787,40.19439C1283.87278,1226.42915,1273.7679,1236.32948,1258.8263,1239.40736Zm-13.73815-48.55433-17.76781-1.99116-3.1184,27.826,18.7746,2.10318c11.56484,1.29663,18.31229-2.86973,19.28947-11.5854C1263.055,1200.16413,1260.34189,1192.56291,1245.08815,1190.853Z" transform="translate(-18.86204 -503.64391)"/></g><g id="text"><path class="cls-3" d="M491.11715,1603.87717V1636.16c0,3.11419-2.99016,5.94462-6.6435,5.94462-3.48679,0-6.64212-2.68818-6.64212-5.94462v-88.4957c0-3.68047,3.65259-6.79466,7.97147-6.79466h24.41118c27.56762,0,37.3652,15.14965,37.3652,31.714,0,20.10756-14.61372,31.29359-37.3652,31.29359Zm0-11.04514h19.097c15.77776,0,24.0802-6.51325,24.0802-20.39056,0-10.19138-4.48343-20.528-24.0802-20.528h-19.097Z" transform="translate(-18.86204 -503.64391)"/><path class="cls-3" d="M484.47365,1642.32365c-3.65507,0-6.8612-2.88-6.8612-6.1637v-88.4957c0-3.80153,3.75073-7.01314,8.19055-7.01314h24.41118c33.9219,0,37.58366,22.33106,37.58366,31.93247,0,19.73173-14.04917,31.51267-37.58366,31.51267H491.3361V1636.16C491.3361,1639.501,488.19353,1642.32365,484.47365,1642.32365Zm1.32935-101.23512c-4.20265,0-7.753,3.01136-7.753,6.57572V1636.16c0,3.05074,3.00155,5.72616,6.42366,5.72616,3.42274,0,6.425-2.67542,6.425-5.72616v-32.50173h19.31549c23.25977,0,37.14674-11.61688,37.14674-31.07464,0-9.47018-3.62-31.495-37.14674-31.495Zm24.41118,51.962H490.89869v-41.35608h19.31549c16.12385,0,24.29916,6.981,24.29916,20.74706C534.51334,1586.11605,526.338,1593.05049,510.21418,1593.05049Zm-18.87808-.43679h18.87808c7.87642,0,13.87061-1.66329,17.81675-4.94142,4.01145-3.332,6.04437-8.45671,6.04437-15.23081,0-13.47681-8.02772-20.30964-23.86112-20.30964H491.3361Z" transform="translate(-18.86204 -503.64391)"/><path class="cls-3" d="M562.69582,1637.85781a7.28344,7.28344,0,0,1-6.31128,4.24676c-3.819,0-6.97372-2.2634-6.97372-5.662a8.26924,8.26924,0,0,1,.33159-2.12375l32.38265-87.36077c1.4944-4.24738,3.81963-7.50555,8.63639-7.50555,4.98132,0,7.14137,3.11716,8.80045,7.50555l32.38438,87.36077a8.29576,8.29576,0,0,1,.3316,2.12375c0,3.39858-2.98954,5.662-6.97372,5.662-2.49215,0-5.64748-1.69836-6.4777-4.24676l-7.14125-19.67918H569.67078Zm10.961-30.72481h34.2105l-17.10587-47.99957Z" transform="translate(-18.86204 -503.64391)"/><path class="cls-3" d="M625.30416,1642.32365c-2.52672,0-5.80064-1.68213-6.68575-4.39808l-7.08636-19.52848h-41.707l-6.92292,19.53383a7.52541,7.52541,0,0,1-6.51759,4.39273c-4.10029,0-7.19218-2.52858-7.19218-5.88106a8.50784,8.50784,0,0,1,.34671-2.20355L581.92,1546.88125c1.2524-3.5583,3.39127-7.64771,8.84147-7.64771,5.37338,0,7.5032,3.67566,9.00491,7.64709l32.38451,87.362a8.53518,8.53518,0,0,1,.34547,2.2C632.49634,1639.90523,629.5389,1642.32365,625.30416,1642.32365Zm-55.78765-24.364h42.32235l7.1928,19.82366c.8011,2.45645,3.88865,4.10277,6.2725,4.10277,3.977,0,6.75476-2.23924,6.75476-5.44352a8.05105,8.05105,0,0,0-.31647-2.04382L599.3562,1547.0344c-1.67-4.41926-3.7713-7.36344-8.59475-7.36344-4.0392,0-6.63853,2.27009-8.43007,7.35911l-32.38389,87.365a8.04936,8.04936,0,0,0-.31821,2.04754c0,3.10329,2.90416,5.44352,6.75526,5.44352a7.05,7.05,0,0,0,6.10744-4.10823Zm38.66059-10.60835H573.347l17.41441-48.869Zm-34.20987-.43741h33.58968l-16.79546-47.12883Z" transform="translate(-18.86204 -503.64391)"/><path class="cls-3" d="M655.19887,1605.8557c0,15.8619,6.14487,25.77249,24.90969,25.77249,7.97147,0,13.78474-1.98212,18.76556-5.23968v-30.44106H682.76476c-3.31988,0-6.3088-2.4075-6.3088-5.38192,0-2.97131,2.98892-5.37759,6.3088-5.37759h19.76257c5.31477,0,9.46649,1.98025,9.46649,6.51214v33.84012c0,11.46868-17.936,16.42224-32.71536,16.42224-25.57411,0-37.36521-14.29849-37.36521-36.10674V1575.558c0-21.80528,11.7911-36.1055,37.36521-36.1055,15.11222,0,29.39373,5.52108,29.39373,12.17783,0,2.68879-2.49165,4.95591-5.97844,4.95591-2.32524,0-3.32175-.99168-5.97783-2.40753a30.77313,30.77313,0,0,0-16.60736-4.389c-18.76482,0-24.90969,9.91059-24.90969,25.7683Z" transform="translate(-18.86204 -503.64391)"/><path class="cls-3" d="M679.27846,1642.18076c-24.23634,0-37.58366-12.90011-37.58366-36.32506V1575.558c0-23.42372,13.34732-36.32448,37.58366-36.32448,15.77479,0,29.61207,5.79322,29.61207,12.39681,0,2.90168-2.722,5.17425-6.19678,5.17425a7.95493,7.95493,0,0,1-4.45679-1.51918c-.47137-.27348-1.00556-.58388-1.624-.91361a30.46434,30.46434,0,0,0-16.50439-4.3625c-8.98558,0-15.307,2.2442-19.3264,6.86183-3.60972,4.14637-5.36433,10.25866-5.36433,18.68688v30.29768c0,8.43007,1.75461,14.54346,5.36433,18.69109,4.01938,4.61763,10.34082,6.86306,19.3264,6.86306,7.2467,0,13.1446-1.63367,18.5471-5.13992v-30.104h-15.8909c-3.53772,0-6.52788-2.56488-6.52788-5.60039,0-3.03428,2.99016-5.59667,6.52788-5.59667h19.76257c6.06494,0,9.68556,2.51644,9.68556,6.73122v33.84012c0,5.29482-3.78642,9.6899-10.94886,12.71326C695.349,1640.74933,687.3358,1642.18076,679.27846,1642.18076Zm0-102.5098c-23.95443,0-37.14675,12.74463-37.14675,35.88706v30.29768c0,23.14354,13.19232,35.88828,37.14675,35.88828,16.14926,0,32.497-5.56644,32.497-16.20378v-33.84012c0-5.68018-6.46741-6.29368-9.24815-6.29368H682.76476c-3.30117,0-6.09046,2.36266-6.09046,5.15913,0,2.79832,2.78929,5.16285,6.09046,5.16285h16.32831v30.77872l-.09925.0648c-5.50411,3.59932-11.50486,5.27537-18.88526,5.27537-17.14342,0-25.12815-8.25945-25.12815-25.99157V1575.558c0-17.729,7.98473-25.98674,25.12815-25.98674a30.872,30.872,0,0,1,16.71925,4.41987c.61647.328,1.15438.64013,1.62934.91609a7.52049,7.52049,0,0,0,4.2366,1.46056c3.22967,0,5.75937-2.08137,5.75937-4.73745C708.45312,1545.25971,694.82029,1539.671,679.27846,1539.671Z" transform="translate(-18.86204 -503.64391)"/><path class="cls-3" d="M787.38976,1640.69H743.38119c-5.48044,0-10.46237-1.55982-10.46237-6.65489v-86.51122c0-3.25632,3.32224-6.65427,7.80629-6.65427h45.00322c3.65446,0,6.644,2.55026,6.644,5.66383,0,3.11419-2.98953,5.38007-6.644,5.38007H746.20555v33.1322h36.36869c3.32113,0,6.47646,2.40578,6.47646,5.51984,0,3.11543-2.82262,5.52171-6.47646,5.52171H746.20555v33.55883h41.18421c3.48755,0,6.64287,2.40689,6.64287,5.23794C794.03263,1638.141,791.04186,1640.69,787.38976,1640.69Z" transform="translate(-18.86204 -503.64391)"/><path class="cls-3" d="M787.38976,1640.90905H743.38119c-6.88785,0-10.68083-2.44084-10.68083-6.874v-86.51122c0-3.25087,3.29572-6.87275,8.02475-6.87275h45.00322c3.784,0,6.86245,2.63863,6.86245,5.88231,0,3.139-3.01432,5.59841-6.86245,5.59841H746.424v32.69552h36.15023c3.62905,0,6.69479,2.62707,6.69479,5.73818,0,3.21952-2.94046,5.74127-6.69479,5.74127H746.424v33.12032h40.96575c3.65458,0,6.86133,2.54964,6.86133,5.45689C794.25109,1638.20562,791.17321,1640.90905,787.38976,1640.90905Zm-46.66465-99.82052c-4.47129,0-7.58734,3.39127-7.58734,6.43533v86.51122c0,5.3196,5.57,6.43643,10.24342,6.43643h44.00857c3.54194,0,6.4238-2.50664,6.4238-5.5875,0-2.6743-3.00156-5.01948-6.4238-5.01948H745.98659v-33.99575h36.58765c3.50873,0,6.25738-2.32945,6.25738-5.30325,0-2.87392-2.86488-5.30138-6.25738-5.30138H745.98659v-33.56974h39.74174c3.603,0,6.42565-2.26712,6.42565-5.161,0-3.00292-2.88309-5.44489-6.42565-5.44489Z" transform="translate(-18.86204 -503.64391)"/><path class="cls-3" d="M922.57279,1638.84887l-47.82708-75.46856v72.92127c0,3.11481-3.156,5.803-6.80979,5.803-3.65507,0-6.47707-2.68818-6.47707-5.803v-90.61647c0-3.54256,2.98842-6.23259,7.142-6.23259a8.29176,8.29176,0,0,1,6.97323,3.40043l47.82758,75.32568V1545.258c0-3.11543,3.15595-5.80546,6.808-5.80546,3.65508,0,6.47881,2.69,6.47881,5.80546v90.61647c0,3.39969-2.99015,6.23012-7.30841,6.23012A8.47175,8.47175,0,0,1,922.57279,1638.84887Z" transform="translate(-18.86204 -503.64391)"/><path class="cls-3" d="M929.38009,1642.32365a8.73139,8.73139,0,0,1-6.98883-3.35322l-47.4271-74.83685v72.168c0,3.26363-3.21889,6.02207-7.02824,6.02207-3.692,0-6.69541-2.70156-6.69541-6.02207v-90.61647c0-3.67812,3.16438-6.45157,7.36033-6.45157a8.4536,8.4536,0,0,1,7.15835,3.50379l47.4235,74.68865v-72.168c0-3.20923,3.28358-6.02444,7.027-6.02444,3.6925,0,6.69715,2.70269,6.69715,6.02444v90.61647C936.90684,1639.55071,933.67171,1642.32365,929.38009,1642.32365ZM874.52663,1562.627l48.23067,76.10436a8.27038,8.27038,0,0,0,6.62279,3.15471c4.04169,0,7.08934-2.58409,7.08934-6.01166V1545.258c0-3.081-2.808-5.587-6.25974-5.587-3.51,0-6.58958,2.61075-6.58958,5.587v73.67281l-.403-.63531-47.8277-75.32581a8.01433,8.01433,0,0,0-6.7886-3.29871c-4.01145,0-6.92291,2.52907-6.92291,6.01415v90.61647c0,3.07974,2.80738,5.58453,6.258,5.58453,3.51109,0,6.59071-2.61011,6.59071-5.58453Z" transform="translate(-18.86204 -503.64391)"/><path class="cls-3" d="M954.95779,1605.8557V1575.558c0-19.67967,10.7941-36.1055,38.1953-36.1055,27.40134,0,38.19654,16.42583,38.19654,36.1055v30.29768c0,20.10742-12.78637,36.24887-38.19654,36.24887C967.74429,1642.10457,954.95779,1625.96312,954.95779,1605.8557Zm13.28686-30.29768v30.29768c0,14.8696,7.8027,25.205,24.90844,25.205,17.10525,0,24.91155-10.33537,24.91155-25.205V1575.558c0-15.00876-6.644-25.06036-24.91155-25.06036C974.88678,1550.49766,968.24465,1560.54926,968.24465,1575.558Z" transform="translate(-18.86204 -503.64391)"/><path class="cls-3" d="M993.15309,1642.32365c-12.04945,0-22.003-3.683-28.78259-10.6506-6.30087-6.47522-9.63166-15.40206-9.63166-25.81735V1575.558c0-10.506,3.07119-19.3518,8.88087-25.58192,6.6482-7.12861,16.58419-10.74256,29.53338-10.74256s22.88593,3.614,29.53413,10.74256c5.80968,6.23074,8.88087,15.07592,8.88087,25.58192v30.29768c0,10.41529-3.33017,19.34213-9.63054,25.81735C1015.15626,1638.64069,1005.2033,1642.32365,993.15309,1642.32365Zm0-102.65269c-24.1346,0-37.97622,13.07981-37.97622,35.88706v30.29768c0,21.88756,14.90653,36.03041,37.97622,36.03041,23.07106,0,37.97883-14.14285,37.97883-36.03041V1575.558C1031.13192,1552.75077,1017.28906,1539.671,993.15309,1539.671Zm0,91.60816c-15.969,0-25.12752-9.26624-25.12752-25.42342V1575.558c0-16.7749,8.45436-25.28008,25.12752-25.28008,16.67577,0,25.13,8.50518,25.13,25.28008v30.29768C1018.28309,1622.01288,1009.12391,1631.27912,993.15309,1631.27912Zm0-80.56362c-8.62907,0-15.06984,2.298-19.14176,6.82973-3.68171,4.09732-5.54822,10.158-5.54822,18.01279v30.29768c0,15.87935,8.99933,24.98651,24.69,24.98651,15.69314,0,24.69383-9.10716,24.69383-24.98651V1575.558c0-7.85475-1.86787-13.91547-5.54946-18.01279C1008.22418,1553.01347,1001.78354,1550.7155,993.15309,1550.7155Z" transform="translate(-18.86204 -503.64391)"/><path class="cls-3" d="M1069.0525,1551.91349h-22.5863c-3.81976,0-6.6404-2.54853-6.6404-5.52232,0-2.40739,2.9883-5.52158,6.6404-5.52158h58.45649c3.4868,0,6.80917,2.40739,6.80917,5.52158,0,2.97379-3.15657,5.52232-6.80917,5.52232h-22.584v84.5291c0,2.9738-2.98842,5.662-6.64461,5.662-3.65147,0-6.64163-2.68818-6.64163-5.662Z" transform="translate(-18.86204 -503.64391)"/><path class="cls-3" d="M1075.69413,1642.32365c-3.71864,0-6.86009-2.69314-6.86009-5.88106v-84.31076H1046.4662c-3.84689,0-6.85948-2.52115-6.85948-5.74066,0-2.58347,3.16562-5.74006,6.85948-5.74006h58.45649c3.80873,0,7.0275,2.62835,7.0275,5.74006,0,3.11183-3.21877,5.74066-7.0275,5.74066h-22.36561v84.31076C1082.55708,1639.63051,1079.41451,1642.32365,1075.69413,1642.32365Zm-29.22793-101.23512c-3.45905,0-6.42206,2.9152-6.42206,5.30264,0,2.97379,2.82138,5.30324,6.42206,5.30324h22.80538v84.74818c0,2.89931,3.00155,5.44352,6.42255,5.44352,3.42274,0,6.42615-2.54421,6.42615-5.44352v-84.74818h22.80241c3.511,0,6.59071-2.47765,6.59071-5.30324,0-2.82547-3.07975-5.30264-6.59071-5.30264Z" transform="translate(-18.86204 -503.64391)"/><path class="cls-3" d="M1191.11323,1636.44259c0,2.9738-2.9878,5.662-6.644,5.662-3.6521,0-6.64163-2.68818-6.64163-5.662v-88.91873c0-3.25632,3.32113-6.65427,7.80506-6.65427h45.0057c3.65086,0,6.641,2.55026,6.641,5.66383,0,3.11419-2.99015,5.38007-6.641,5.38007h-39.52514v33.1322h36.36869c3.32051,0,6.47819,2.40578,6.47819,5.51984,0,3.11543-2.82621,5.52171-6.47819,5.52171h-36.36869Z" transform="translate(-18.86204 -503.64391)"/><path class="cls-3" d="M1184.46924,1642.32365c-3.71864,0-6.86009-2.69314-6.86009-5.88106v-88.91873c0-3.25087,3.29511-6.87275,8.02352-6.87275h45.0057c3.78159,0,6.85947,2.63863,6.85947,5.88231,0,3.139-3.0137,5.59841-6.85947,5.59841h-39.30619v32.69552h36.14974c3.62967,0,6.69665,2.62707,6.69665,5.73818,0,3.21952-2.9417,5.74127-6.69665,5.74127h-36.14974v40.13579C1191.33218,1639.63051,1188.189,1642.32365,1184.46924,1642.32365Zm1.16343-101.23512c-4.47067,0-7.58548,3.39127-7.58548,6.43533v88.91873c0,2.89931,3.00043,5.44352,6.422,5.44352,3.42274,0,6.42553-2.54421,6.42553-5.44352v-40.57381h36.58715c3.50985,0,6.25911-2.32945,6.25911-5.30325,0-2.87392-2.866-5.30138-6.25911-5.30138h-36.58715v-33.56974h39.7436c3.60067,0,6.42205-2.26712,6.42205-5.161,0-3.00292-2.88123-5.44489-6.42205-5.44489Z" transform="translate(-18.86204 -503.64391)"/><path class="cls-3" d="M1250.23588,1605.8557V1575.558c0-19.67967,10.79273-36.1055,38.19283-36.1055,27.40319,0,38.1948,16.42583,38.1948,36.1055v30.29768c0,20.10742-12.78464,36.24887-38.1948,36.24887C1263.02226,1642.10457,1250.23588,1625.96312,1250.23588,1605.8557Zm13.28562-30.29768v30.29768c0,14.8696,7.8032,25.205,24.90721,25.205,17.10772,0,24.91278-10.33537,24.91278-25.205V1575.558c0-15.00876-6.64461-25.06036-24.91278-25.06036C1270.16177,1550.49766,1263.5215,1560.54926,1263.5215,1575.558Z" transform="translate(-18.86204 -503.64391)"/><path class="cls-3" d="M1288.42871,1642.32365c-12.04822,0-22.00057-3.683-28.78074-10.6506-6.301-6.47522-9.63116-15.40206-9.63116-25.81735V1575.558c0-10.506,3.07119-19.3518,8.88025-25.58192,6.64708-7.12861,16.58369-10.74256,29.53165-10.74256,12.94981,0,22.88654,3.614,29.53351,10.74256,5.80967,6.23012,8.88087,15.07592,8.88087,25.58192v30.29768c0,10.41529-3.3308,19.34213-9.63105,25.81735C1310.4325,1638.64069,1300.47829,1642.32365,1288.42871,1642.32365Zm0-102.65269c-24.13337,0-37.97449,13.07981-37.97449,35.88706v30.29768c0,21.88756,14.90591,36.03041,37.97449,36.03041,23.07043,0,37.977-14.14285,37.977-36.03041V1575.558C1326.40567,1552.75077,1312.56281,1539.671,1288.42871,1539.671Zm0,91.60816c-15.96835,0-25.12629-9.26624-25.12629-25.42342V1575.558c0-16.7749,8.45374-25.28008,25.12629-25.28008,16.67576,0,25.13124,8.50518,25.13124,25.28008v30.29768C1313.56,1622.01288,1304.40015,1631.27912,1288.42871,1631.27912Zm0-80.56362c-8.62908,0-15.06923,2.298-19.14115,6.82973-3.68109,4.09732-5.54772,10.15755-5.54772,18.01279v30.29768c0,15.87935,8.99883,24.98651,24.68887,24.98651,15.69375,0,24.69382-9.10716,24.69382-24.98651V1575.558c0-7.85475-1.86725-13.91547-5.54958-18.01279C1303.49979,1553.01347,1297.05853,1550.7155,1288.42871,1550.7155Z" transform="translate(-18.86204 -503.64391)"/><path class="cls-3" d="M1381.7631,1642.10457c-23.58282,0-36.70326-14.44062-36.70326-33.98237v-62.72333c0-3.39733,2.98891-5.94635,6.80854-5.94635,3.49175,0,6.47881,2.69,6.47881,5.94635v62.72333c0,13.5954,7.473,22.93847,23.41591,22.93847,15.94058,0,23.24763-9.62572,23.24763-22.93847v-62.72333a6.29248,6.29248,0,0,1,6.47887-5.94635c3.98422,0,6.97436,2.831,6.97436,5.94635v62.72333C1418.464,1627.8067,1404.84617,1642.10457,1381.7631,1642.10457Z" transform="translate(-18.86204 -503.64391)"/><path class="cls-3" d="M1381.7631,1642.32365c-22.42969,0-36.92234-13.42478-36.92234-34.20145v-62.72333c0-3.51468,3.02162-6.16533,7.02762-6.16533,3.63029,0,6.69727,2.82376,6.69727,6.16533v62.72333c0,14.43875,8.45547,22.72,23.19745,22.72,14.6354,0,23.02929-8.28126,23.02929-22.72v-62.72333c0-3.34157,3.06636-6.16533,6.69721-6.16533,3.96668,0,7.19279,2.76564,7.19279,6.16533v62.72333c0,9.92087-3.37557,18.40361-9.7612,24.531C1402.328,1638.97947,1392.93649,1642.32365,1381.7631,1642.32365ZM1351.86838,1539.671c-3.7573,0-6.59009,2.46193-6.59009,5.72791v62.72333c0,20.51162,14.32141,33.76391,36.48481,33.76391,22.16227,0,36.48244-13.25229,36.48244-33.76391v-62.72333c0-3.1583-3.03067-5.72791-6.75594-5.72791-3.39306,0-6.25979,2.62351-6.25979,5.72791v62.72333c0,14.71706-8.553,23.15692-23.46671,23.15692-15.02029,0-23.63487-8.43986-23.63487-23.15692v-62.72333C1358.12823,1542.29447,1355.2615,1539.671,1351.86838,1539.671Z" transform="translate(-18.86204 -503.64391)"/><path class="cls-3" d="M1502.49448,1638.84887l-47.82585-75.46856v72.92127c0,3.11481-3.15644,5.803-6.80792,5.803-3.65569,0-6.47708-2.68818-6.47708-5.803v-90.61647c0-3.54256,2.989-6.23259,7.1384-6.23259a8.29524,8.29524,0,0,1,6.97682,3.40043l47.82758,75.32568V1545.258c0-3.11543,3.15471-5.80546,6.808-5.80546,3.65383,0,6.4746,2.69,6.4746,5.80546v90.61647c0,3.39969-2.9878,6.23012-7.30593,6.23012A8.47445,8.47445,0,0,1,1502.49448,1638.84887Z" transform="translate(-18.86204 -503.64391)"/><path class="cls-3" d="M1509.30315,1642.32365a8.73231,8.73231,0,0,1-6.9902-3.35322l-47.42648-74.83685v72.168c0,3.20737-3.28358,6.02207-7.02576,6.02207-3.692,0-6.69541-2.70156-6.69541-6.02207v-90.61647c0-3.67812,3.1619-6.45157,7.35673-6.45157a8.46088,8.46088,0,0,1,7.16257,3.50379l47.42226,74.68865v-72.168c0-3.20923,3.28358-6.02444,7.02762-6.02444,3.69076,0,6.69355,2.70269,6.69355,6.02444v90.61647C1516.828,1639.55071,1513.59352,1642.32365,1509.30315,1642.32365ZM1454.4503,1562.627l48.22881,76.10436a8.2729,8.2729,0,0,0,6.624,3.15471c4.04044,0,7.08685-2.58409,7.08685-6.01166V1545.258c0-3.081-2.80614-5.587-6.25552-5.587-3.51046,0-6.58959,2.61075-6.58959,5.587v73.67281l-.40358-.63531-47.82709-75.32581a8.01963,8.01963,0,0,0-6.79219-3.29871c-4.00909,0-6.91932,2.52907-6.91932,6.01415v90.61647c0,3.07974,2.80676,5.58453,6.258,5.58453,3.50923,0,6.58959-2.61011,6.58959-5.58453Z" transform="translate(-18.86204 -503.64391)"/><path class="cls-3" d="M1567.76323,1640.69h-18.76432c-4.31875,0-7.97147-3.11543-7.97147-6.79654v-86.36957c0-3.68109,3.65272-6.79592,7.97147-6.79592h18.76432c33.8789,0,45.50247,17.13426,45.50247,36.1049v26.478C1613.2657,1622.70742,1601.80669,1640.69,1567.76323,1640.69Zm32.21871-63.85713c0-14.01832-7.80517-25.061-29.395-25.061h-16.27391v77.87421H1570.587c21.92325,0,29.395-11.75306,29.395-26.33518Z" transform="translate(-18.86204 -503.64391)"/><path class="cls-3" d="M1567.76323,1640.90905h-18.76432c-4.43919,0-8.18993-3.21282-8.18993-7.01562v-86.36957c0-3.80218,3.75074-7.01486,8.18993-7.01486h18.76432c15.79648,0,27.77518,3.69981,35.60514,10.99669,6.618,6.16779,10.11517,14.92586,10.11517,25.32715v26.478c0,10.69719-3.47428,19.72936-10.05111,26.12042C1595.59653,1637.047,1583.596,1640.90905,1567.76323,1640.90905Zm-18.76432-99.96263c-4.20264,0-7.75239,3.01183-7.75239,6.57744v86.36957c0,3.56623,3.54975,6.57808,7.75239,6.57808h18.76432c28.77838,0,45.28339-13.54509,45.28339-37.16062v-26.478c0-22.80663-16.505-35.88642-45.28339-35.88642Zm21.58806,88.91811H1554.0946V1551.5529H1570.587c10.21009,0,17.92989,2.46846,22.9464,7.33555,4.42408,4.294,6.66753,10.33115,6.66753,17.94439v26.478C1600.2009,1615.42454,1595.06283,1629.86453,1570.587,1629.86453Zm-16.055-.43741h16.055c24.114,0,29.17589-14.20233,29.17589-26.11623v-26.478c0-11.33312-5.06186-24.8419-29.17589-24.8419h-16.055Z" transform="translate(-18.86204 -503.64391)"/><path class="cls-3" d="M505.7181,1065.52211H459.88342V855.77332c0-23.78863-22.50589-43.14155-50.16917-43.14155-28.59933,0-50.16558,18.547-50.16558,43.14155v209.74879H135.96858l18.51563-42.77737c33.99811-78.54523,65.23059-149.63445,95.43509-218.38406l.02776-.06344c30.21119-68.76349,61.44975-139.86844,95.37822-218.2569l.10594-.24026c2.05957-4.63288,2.05957-7.5467,2.05957-13.35216,0-10.58642-5.64934-21.8173-15.49834-30.8144-10.05817-9.18694-23.02075-14.673-34.67269-14.673-19.52057,0-37.74884,11.02755-44.328,26.81746l-.16952.39937L27.88863,1073.1693l-.1518.32846c-4.8258,10.45274-8.25349,25.10637-8.87479,29.19166.56207,23.67722,20.21088,47.94989,52.49862,47.94989h288.188v126.61491c0,24.59754,21.56625,43.14638,50.16558,43.14638,28.60106,0,50.16917-18.54884,50.16917-43.14638V1150.63931H505.7181c26.81919,0,47.8282-18.95243,47.8282-43.14762C553.5463,1084.34988,532.09083,1065.52211,505.7181,1065.52211Z" transform="translate(-18.86204 -503.64391)"/><path class="cls-3" d="M1957.8494,1073.23522h-45.83455V863.48644c0-23.78864-22.50713-43.14155-50.17164-43.14155-28.59748,0-50.16311,18.547-50.16311,43.14155v209.74878H1588.09878l18.51625-42.77861c33.99513-78.53916,65.25116-149.6829,95.47858-218.48443l.03024-.072c30.19669-68.72953,61.42062-139.79942,95.331-218.14612l.11982-.27471c2.04445-4.59719,2.04445-7.51225,2.04445-13.31833,0-10.58642-5.6481-21.8173-15.4976-30.81428-10.05829-9.18768-23.02025-14.67308-34.67219-14.67308-19.52056,0-37.74934,11.02767-44.328,26.81746l-.16939.39937-224.93359,518.99-.15006.32617c-4.827,10.457-8.25585,25.11055-8.876,29.19584.56208,23.67724,20.21027,47.95051,52.49738,47.95051H1811.6801v126.61429c0,24.59692,21.56563,43.14636,50.16311,43.14636,28.60241,0,50.17164-18.54944,50.17164-43.14636V1158.353h45.83455c26.81931,0,47.82833-18.95305,47.82833-43.14824C2005.67773,1092.06237,1984.22225,1073.23522,1957.8494,1073.23522Z" transform="translate(-18.86204 -503.64391)"/></g></svg>