<svg id="Layer_2" data-name="Layer 2" xmlns="http://www.w3.org/2000/svg" xmlns:xlink="http://www.w3.org/1999/xlink" viewBox="0 0 2100 2100"><defs><style>.cls-1{fill:#f4f4f4;}.cls-2{fill:#777;}.cls-3{fill:url(#linear-gradient);}.cls-4{fill:url(#linear-gradient-2);}.cls-5{fill:url(#linear-gradient-3);}.cls-6{fill:#192b59;}.cls-7{fill:#f2dad4;}.cls-8{fill:url(#linear-gradient-4);}.cls-9{fill:#e64d4e;}.cls-10{fill:#176ad4;}.cls-11{fill:url(#linear-gradient-5);}.cls-12{fill:#4f2d05;}.cls-13{fill:url(#linear-gradient-6);}.cls-14{fill:url(#linear-gradient-7);}.cls-15{fill:url(#linear-gradient-8);}.cls-16{fill:url(#linear-gradient-9);}.cls-17{fill:url(#linear-gradient-10);}.cls-18{fill:#f4ce0f;}.cls-19{fill:#f28c11;}</style><linearGradient id="linear-gradient" x1="1102.78097" y1="1443.96565" x2="1102.78097" y2="1317.98456" gradientUnits="userSpaceOnUse"><stop offset="0" stop-color="#fff"/><stop offset="1" stop-color="#e6e7e8"/></linearGradient><linearGradient id="linear-gradient-2" x1="768.26625" y1="870.01084" x2="730.47737" y2="869.0877" gradientUnits="userSpaceOnUse"><stop offset="0" stop-color="#4e9cff"/><stop offset="0.95034" stop-color="#176ad4"/></linearGradient><linearGradient id="linear-gradient-3" x1="744.4369" y1="1389.15473" x2="864.16469" y2="1389.15473" gradientUnits="userSpaceOnUse"><stop offset="0" stop-color="#4e9cff"/><stop offset="0.74663" stop-color="#176ad4"/></linearGradient><linearGradient id="linear-gradient-4" x1="935.56874" y1="779.69904" x2="1356.21818" y2="779.69904" xlink:href="#linear-gradient-3"/><linearGradient id="linear-gradient-5" x1="924.86602" y1="564.25368" x2="987.91915" y2="564.25368" xlink:href="#linear-gradient-3"/><linearGradient id="linear-gradient-6" x1="989.46171" y1="567.37306" x2="989.54205" y2="567.37306" xlink:href="#linear-gradient-3"/><linearGradient id="linear-gradient-7" x1="988.77121" y1="569.24093" x2="989.24419" y2="569.24093" xlink:href="#linear-gradient-3"/><linearGradient id="linear-gradient-8" x1="988.05245" y1="570.34645" x2="988.57765" y2="570.34645" xlink:href="#linear-gradient-3"/><linearGradient id="linear-gradient-9" x1="532.11602" y1="1375.10324" x2="571.46394" y2="1387.44838" gradientUnits="userSpaceOnUse"><stop offset="0" stop-color="#f4840f"/><stop offset="1" stop-color="#f4ce0f"/></linearGradient><linearGradient id="linear-gradient-10" x1="535.31406" y1="1386.59432" x2="580.19394" y2="1394.16935" gradientUnits="userSpaceOnUse"><stop offset="0" stop-color="#f4ce0f"/><stop offset="1" stop-color="#f4f1e0"/></linearGradient></defs><path class="cls-1" d="M317.91929,725.00345q125.59415,0,199.97761,70.52439Q592.24376,866.06137,592.26206,988.72q0,145.20959-89.509,223.42474-89.51783,78.24253-256.07146,78.22424-144.63335,0-233.557-46.7846V1085.48978q46.80278,24.85548,109.02379,40.54785,62.22084,15.69252,117.91243,15.67407,167.6783,0,167.69651-137.281,0-130.75164-173.604-130.76993-31.41226,0-69.33562,6.21829-37.91413,6.2276-61.61731,13.31485L30.31669,854.03608,62.92693,411.30175H532.98566V566.98207h-309.294L207.70667,737.477l20.74036-4.15173Q264.578,725.01275,317.91929,725.00345Z"/><path class="cls-1" d="M1297.23421,844.70836q0,227.293-74.40176,336.47224Q1148.43068,1290.369,993.738,1290.369q-149.98322,0-226.14981-112.75495-76.1849-112.75465-76.17583-332.90566,0-229.65219,74.09081-338.55715,74.1-108.88666,228.23483-108.89572,149.95575,0,226.73511,113.94356Q1297.2342,625.13361,1297.23421,844.70836Zm-423.67655.27434q0,159.63991,27.52566,228.76529,27.51659,69.13423,92.65465,69.13432,63.92186,0,92.34384-70.01228,28.42178-70.0122,28.42177-227.88733,0-159.61251-28.71442-229.33217-28.72371-69.73793-92.05119-69.73792-64.52532,0-92.362,69.73792Q873.55766,685.38846,873.55766,844.9827Z"/><path class="cls-1" d="M1990.94052,844.70836q0,227.293-74.40176,336.47224Q1842.137,1290.369,1687.44442,1290.369q-149.9832,0-226.14995-112.75495-76.18491-112.75465-76.17568-332.90566,0-229.65219,74.09081-338.55715,74.09982-108.88666,228.23482-108.89572,149.95554,0,226.73512,113.94356Q1990.94044,625.13361,1990.94052,844.70836Zm-423.67655.27434q0,159.63991,27.52566,228.76529,27.51657,69.13423,92.65479,69.13432,63.92187,0,92.3437-70.01228,28.422-70.0122,28.42192-227.88733,0-159.61251-28.71457-229.33217-28.72371-69.73793-92.05105-69.73792-64.52553,0-92.36214,69.73792Q1567.264,685.38846,1567.264,844.9827Z"/><path class="cls-2" d="M133.91356,1648.11347V1505.301h23.34637v142.81245Z"/><path class="cls-2" d="M287.569,1648.11347H264.51573v-66.42421q0-12.50559-5.03268-18.65727-5.02638-6.15429-15.96914-6.15429-14.55659,0-21.29494,8.59626-6.7401,8.59408-6.7401,28.81656v53.82295h-22.9554V1540.07616h17.9736l3.22349,14.1643h1.17206a31.96589,31.96589,0,0,1,13.87118-11.9176,46.5173,46.5173,0,0,1,19.92717-4.20028q38.88018,0,38.878,39.56167Z"/><path class="cls-2" d="M359.7565,1631.50764a55.82412,55.82412,0,0,0,16.80155-2.63768v17.28994a46.34306,46.34306,0,0,1-9.81921,2.786,67.6928,67.6928,0,0,1-12.45253,1.12161q-32.62412,0-32.62586-34.3846V1557.464H306.90991v-10.15886l15.82475-8.401,7.81474-22.85754h14.16387v24.0296H375.4834V1557.464H344.71327v57.82839q0,8.30053,4.15374,12.25682Q353.01466,1631.51156,359.7565,1631.50764Z"/><path class="cls-2" d="M445.32681,1650.06748q-25.20231,0-39.41728-14.70357-14.20626-14.69684-14.21083-40.48758,0-26.46983,13.18751-41.61266,13.18729-15.143,36.24033-15.14109,21.39258,0,33.79835,12.99181,12.40317,12.98964,12.40556,35.75193v12.406H415.33819q.49057,15.72885,8.49841,24.17442,8.00761,8.45384,22.56486,8.45144a83.211,83.211,0,0,0,17.82921-1.80919,93.34086,93.34086,0,0,0,17.727-6.00555v18.6577a70.52966,70.52966,0,0,1-16.99681,5.66546A104.07168,104.07168,0,0,1,445.32681,1650.06748Zm-4.20027-94.55711q-10.93864,0-17.53218,6.93537-6.59985,6.93777-7.86562,20.22031H464.7656q-.197-13.38431-6.447-20.26684Q452.06909,1555.50581,441.12654,1555.51037Z"/><path class="cls-2" d="M568.21209,1538.12258a55.34506,55.34506,0,0,1,11.42877.97679l-2.2467,21.3928a43.3932,43.3932,0,0,0-10.15929-1.1725q-13.7731,0-22.31827,8.98724-8.54907,8.98875-8.54929,23.34594v56.46062H513.41192V1540.07616h17.9736l3.02822,19.04824h1.17206a42.74612,42.74612,0,0,1,14.01947-15.33592A33.31326,33.31326,0,0,1,568.21209,1538.12258Z"/><path class="cls-2" d="M694.7114,1648.11347H671.65815v-66.42421q0-12.50559-5.03268-18.65727-5.02636-6.15429-15.96914-6.15429-14.55723,0-21.29494,8.59626-6.7401,8.59408-6.7401,28.81656v53.82295h-22.9554V1540.07616h17.9736l3.22349,14.1643H622.035a31.966,31.966,0,0,1,13.87118-11.9176,46.51734,46.51734,0,0,1,19.92718-4.20028q38.88017,0,38.878,39.56167Z"/><path class="cls-2" d="M794.2503,1648.11347l-4.59125-15.0428h-.78152q-7.81647,9.86812-15.7269,13.42888-7.91237,3.56772-20.31815,3.56793-15.92,0-24.86244-8.59625-8.93135-8.59409-8.93592-24.32316,0-16.70348,12.406-25.2021,12.40382-8.49819,37.80336-9.27992l18.65727-.58625v-5.76288q0-10.35282-4.83741-15.48075-4.82871-5.13465-14.99235-5.13053a51.89934,51.89934,0,0,0-15.92218,2.442,120.11648,120.11648,0,0,0-14.65226,5.76332l-7.4242-16.41057a79.696,79.696,0,0,1,19.24352-6.98234,88.48425,88.48425,0,0,1,19.7319-2.39544q20.60912,0,31.11415,8.9868,10.49895,8.98941,10.499,28.23032v72.77377ZM760.061,1632.48442q12.50559,0,20.072-6.98234,7.57446-6.98863,7.5725-19.58752v-9.37734l-13.87117.58581q-16.2129.58647-23.59253,5.41931-7.37093,4.84176-7.37288,14.801,0,7.23066,4.29813,11.18261Q751.46733,1632.489,760.061,1632.48442Z"/><path class="cls-2" d="M865.65631,1648.11347H842.70092V1496.119h22.95539Z"/><path class="cls-2" d="M1035.2339,1609.33332q0,19.04868-13.77332,29.89121-13.77311,10.84273-37.99863,10.84295-24.2277,0-39.65909-7.52161v-22.07646a107.582,107.582,0,0,0,20.75958,7.22849,87.97462,87.97462,0,0,0,20.46254,2.63724q13.869,0,20.46254-5.27448a17.19349,17.19349,0,0,0,6.59571-14.1643,17.74748,17.74748,0,0,0-6.05643-13.57762q-6.05839-5.56848-25.00683-13.18751-19.53858-7.91238-27.54664-18.071-8.00763-10.16169-8.01-24.421,0-17.87576,12.69869-28.13246,12.69672-10.25694,34.09147-10.25672a100.13427,100.13427,0,0,1,40.83158,8.9868l-7.4242,19.04825q-19.048-8.00827-33.99362-8.01-11.33331,0-17.19209,4.93483a16.19526,16.19526,0,0,0-5.86116,13.03877,18.3381,18.3381,0,0,0,2.34455,9.52173,23.92693,23.92693,0,0,0,7.71689,7.47509q5.37081,3.51618,19.34137,9.27992,15.72885,6.54244,23.05325,12.21029a35.92653,35.92653,0,0,1,10.7451,12.79654A38.46583,38.46583,0,0,1,1035.2339,1609.33332Z"/><path class="cls-2" d="M1107.61713,1650.06748q-25.20231,0-39.41728-14.70357-14.20692-14.69684-14.21083-40.48758,0-26.46983,13.18708-41.61266,13.1873-15.143,36.24032-15.14109,21.39258,0,33.79836,12.99181,12.40381,12.98964,12.406,35.75193v12.406h-71.99269q.49058,15.72885,8.49841,24.17442,8.00826,8.45384,22.56485,8.45144a83.20806,83.20806,0,0,0,17.82921-1.80919,93.334,93.334,0,0,0,17.72745-6.00555v18.6577a70.53587,70.53587,0,0,1-16.99681,5.66546A104.07812,104.07812,0,0,1,1107.61713,1650.06748Zm-4.20071-94.55711q-10.938,0-17.53174,6.93537-6.59985,6.93777-7.86562,20.22031h49.03686q-.19767-13.38431-6.447-20.26684Q1114.35942,1555.50581,1103.41642,1555.51037Z"/><path class="cls-2" d="M1230.502,1538.12258a55.33929,55.33929,0,0,1,11.42877.97679l-2.2467,21.3928a43.38954,43.38954,0,0,0-10.15886-1.1725q-13.7731,0-22.31827,8.98724-8.54972,8.98875-8.54972,23.34594v56.46062h-22.9554V1540.07616h17.9736l3.02822,19.04824h1.1725a42.7422,42.7422,0,0,1,14.01947-15.33592A33.3119,33.3119,0,0,1,1230.502,1538.12258Z"/><path class="cls-2" d="M1286.57206,1648.11347l-41.02685-108.03731h24.22531l21.97861,62.81019q5.66372,15.82474,6.838,25.59307h.78152q.87872-7.033,6.83752-25.59307l21.979-62.81019h24.42058l-41.22212,108.03731Z"/><path class="cls-2" d="M1416.19744,1650.06748q-25.20231,0-39.41728-14.70357-14.20692-14.69684-14.21083-40.48758,0-26.46983,13.18707-41.61266,13.18729-15.143,36.24033-15.14109,21.39258,0,33.79835,12.99181,12.40383,12.98964,12.406,35.75193v12.406h-71.99269q.49056,15.72885,8.4984,24.17442,8.00828,8.45384,22.56486,8.45144a83.20806,83.20806,0,0,0,17.82921-1.80919,93.334,93.334,0,0,0,17.72745-6.00555v18.6577a70.53608,70.53608,0,0,1-16.99682,5.66546A104.078,104.078,0,0,1,1416.19744,1650.06748Zm-4.20071-94.55711q-10.938,0-17.53174,6.93537-6.59985,6.93777-7.86563,20.22031h49.03686q-.19766-13.38431-6.447-20.26684Q1422.93971,1555.50581,1411.99673,1555.51037Z"/><path class="cls-2" d="M1539.08228,1538.12258a55.33923,55.33923,0,0,1,11.42877.97679l-2.2467,21.3928a43.38948,43.38948,0,0,0-10.15886-1.1725q-13.7731,0-22.31826,8.98724-8.54973,8.98875-8.54973,23.34594v56.46062h-22.95539V1540.07616h17.9736l3.02822,19.04824h1.17249a42.74231,42.74231,0,0,1,14.01948-15.33592A33.31187,33.31187,0,0,1,1539.08228,1538.12258Z"/><path class="cls-2" d="M1705.7295,1648.11347h-80.78378V1505.301h80.78378v19.73234h-57.43785v38.87757H1702.115v19.53663h-53.82339v44.83659h57.43785Z"/><path class="cls-2" d="M1788.95526,1538.12258a55.34211,55.34211,0,0,1,11.42877.97679l-2.2467,21.3928a43.38948,43.38948,0,0,0-10.15886-1.1725q-13.77311,0-22.3187,8.98724-8.54907,8.98875-8.54929,23.34594v56.46062h-22.95539V1540.07616h17.9736l3.02822,19.04824h1.17206a42.74723,42.74723,0,0,1,14.01991-15.33592A33.31082,33.31082,0,0,1,1788.95526,1538.12258Z"/><path class="cls-2" d="M1875.20924,1538.12258a55.33929,55.33929,0,0,1,11.42877.97679l-2.2467,21.3928a43.38954,43.38954,0,0,0-10.15886-1.1725q-13.77311,0-22.31827,8.98724-8.54972,8.98875-8.54972,23.34594v56.46062h-22.9554V1540.07616h17.9736l3.02822,19.04824h1.17206a42.74717,42.74717,0,0,1,14.01992-15.33592A33.31184,33.31184,0,0,1,1875.20924,1538.12258Z"/><path class="cls-2" d="M2002.49006,1593.89955q0,26.46982-13.57805,41.32-13.57545,14.85013-37.80336,14.848-15.1424,0-26.7647-6.83795a45.10748,45.10748,0,0,1-17.87618-19.63449q-6.24954-12.7985-6.25171-29.69549,0-26.2787,13.4802-41.02685,13.4802-14.74773,37.99863-14.75012,23.44424,0,37.1197,15.09412Q2002.49246,1568.30235,2002.49006,1593.89955Zm-78.63494,0q0,37.415,27.6445,37.41282,27.34921,0,27.35138-37.41282,0-37.01967-27.54665-37.02185-14.45481,0-20.95093,9.573Q1923.85535,1576.026,1923.85512,1593.89955Z"/><path class="cls-2" d="M2083.66439,1538.12258a55.3468,55.3468,0,0,1,11.42921.97679l-2.2467,21.3928a43.396,43.396,0,0,0-10.1593-1.1725q-13.77311,0-22.31826,8.98724-8.54973,8.98875-8.54929,23.34594v56.46062h-22.9554V1540.07616h17.9736l3.02822,19.04824h1.17206a42.74231,42.74231,0,0,1,14.01948-15.33592A33.31184,33.31184,0,0,1,2083.66439,1538.12258Z"/><ellipse class="cls-3" cx="1102.78097" cy="1410.68869" rx="908.34169" ry="29.61975"/><path class="cls-4" d="M755.48543,880.76977c-7.80817,8.32861-18.29276,28.11275-20.50082,34.27213l-5.26387-55.70446,35.138-35.25393Z"/><path class="cls-5" d="M813.44779,1356.36907c-7.67471,6.06506-26.426,14.7735-37.87039,18.51891s-21.432,6.2424-26.21788,9.15553-6.03425,11.44438-3.95355,14.35751c2.08085,2.91313,21.016,25.17745,44.11279,25.38559s29.131-.83228,33.5007-3.32927,9.73905-6.7359,11.01068-6.45337c1.27178.28269,3.53251,3.10863,6.07592,3.67385s13.5648-2.68475,15.68433-5.22816,5.5107-13.14078,5.5107-16.956c0-3.815,4.23891-24.44485,2.40207-25.57529C861.86631,1368.78811,823.63973,1348.31452,813.44779,1356.36907Z"/><path class="cls-6" d="M1036.31758,962.25782c-21.12674,33.482-98.59131,157.89463-106.416,194.67075s-56.88042,197.06254-62.21586,208.3263c-5.33543,11.2636-10.7704,13.35621-33.8905,5.05661-23.12026-8.29959-24.89864-13.04213-24.89864-22.52736s36.75514-157.09865,43.2762-183.18307c6.52107-26.08427,51.5758-174.29059,51.5758-181.4044,0-7.114-33.791-32.60548-39.1264-72.91752-5.33544-40.31219-1.18579-75.88163-6.52107-76.47446-5.33543-.59282-82.99565,44.46187-90.70235,45.05476-7.7067.59274-14.82066,8.29944-14.82066,5.33543,0-2.96416,10.07812-72.32478,10.07812-72.32478s45.64747-37.94077,58.09686-48.61163c12.44925-10.67087,65.80357-50.39016,85.36677-37.94077,19.5632,12.44924,27.27,75.88154,30.827,95.44484,3.5569,19.56323.59274,30.23411,8.29959,30.23411,7.7067,0,23.12011-5.33546,23.12011-5.33546Z"/><path class="cls-7" d="M1022.928,591.22607c2.455-4.61668-9.70692-17.79613-16.42705-22.64952-6.72029-4.85353-10.20474-4.97791-13.81371-7.96469-3.60913-2.98677-6.9692-8.96032-15.55609-3.7335s-18.16942,22.61841-12.19587,30.7853c5.97341,8.167,15.43156,12.1493,20.78276,15.2606,5.35135,3.11116,2.98678,5.60011,9.33362,4.729S1014.59006,606.90653,1022.928,591.22607Z"/><path class="cls-8" d="M1177.08589,739.24194c-4.93462-3.83811-23.43969-17.68261-41.3965-20.56123-17.95667-2.87846-28.64851-.95949-31.1159-2.3302s-18.64209-6.16831-28.6485-31.80133c-10.00656-25.63286-49.05143-96.88552-52.48678-96.88552-3.43521,0-8.68925,9.29568-20.81386,13.33716s-20.00567,1.41446-20.20772,7.88093,21.82423,34.7573,30.71567,60.62316,25.66382,62.23981,30.31158,68.70627,9.69977,11.31628,7.07275,12.52869c-2.627,1.21257-101.5336,85.61352-109.76326,97.46414-8.22952,11.85055-8.55,65.73825,13.12143,87.15422,29.03489,28.6927,57.21846,36.37619,78.09317,36.37619,14.92406,0,11.0202-32.23145,74.06968-77.68565,16.4751-11.87733,45.52264-24.93925,56.762-21.19265,11.2395,3.74645,31.04834,55.216,65.98493,67.07281,34.93658,11.85695,59.52858-8.34363,80.16821-18.44392,20.63978-10.10029,58.17794-34.21187,44.23539-54.42867-13.94271-20.21681-16.69709-12.83711-34.12543-4.12287-17.4282,8.7141-56.50164,21.20262-59.63868,15.974-3.13705-5.22845-28.64464-48.272-30.63949-59.2428s-2.56484-28.693-8.90588-43.969S1177.08589,739.24194,1177.08589,739.24194Z"/><path class="cls-9" d="M1222.71937,700.45669c10.13793-7.39055,21.09267-12.218,22.20674-17.97407,1.11407-5.75589,12.44032-10.212,23.58088-5.38454,11.14042,4.82765,17.08214.74272,21.53827,9.28378,4.45629,8.54107,14.66846,25.6232,15.78253,40.8487,1.11393,15.22534-17.37939,45.29545-36.75052,50.06373S1222.71937,700.45669,1222.71937,700.45669Z"/><path class="cls-7" d="M1254.08893,687.86343c-12.19631,2.08278-32.96166,13.65079-42.28412,17.97913-9.32247,4.32818-43.94884,34.9592-40.61942,58.5984s61.595,22.64029,65.25738,21.30855,4.91632,8.53571,21.84313.57176c16.9268-7.96379,14.99146-14.00251,11.93684-14.82066-6.83827-1.83164-10.41184-11.95157-5.25346-14.03941,5.41206-2.1905,12.17281-12.34063,17.50661-15.1819,10.6298-5.6626-1.21406-23.45531-13.34089-31.18017C1256.46288,703.02688,1263.64156,686.232,1254.08893,687.86343Z"/><path class="cls-9" d="M1264.96928,757.4612s-10.0439,7.091-29.84009,13.2046c-19.79619,6.11341-20.65213,1.2761-26.51127-.92928-4.84639-1.82406-16.59428-5.145-21.87719-12.36489-5.28277-7.21989-3.48892-14.03733-.72025-21.84327.80342-2.26489,25.78433-29.6858,25.78433-29.6858-5.86019,2.26548-23.27827,16.49117-35.51847,31.35423s-8.743,26.66615-6.1201,32.4948,25.96792,20.66269,46.12223,18.3603,18.86735-14.86306,31.25336-16.466c12.38586-1.60281,13.26025-1.31135,21.71175-.14565C1277.70523,772.60591,1264.96928,757.4612,1264.96928,757.4612Z"/><path class="cls-7" d="M989.74305,551.36216c4.99443-1.45672,3.74958,10.1601,4.95917,11.97448,1.20944,1.81423-8.95066,1.81423-10.64394-2.29822C982.36486,556.926,986.84019,552.20887,989.74305,551.36216Z"/><path class="cls-10" d="M745.61768,764.46833c-30.68874-8.438-54.03529,47.67819-57.66792,62.20865-3.63264,14.53051,8.10231,39.56821,2.26608,45.12651-5.83638,5.55846-8.61546,33.07236-6.67015,42.79951,1.94546,9.72715,13.896,19.45444,25.5686,19.73237,11.6726.27777,24.4569-8.33769,27.792-18.8986,3.33493-10.56092-1.66753-42.52159,0-48.91366,1.66754-6.39222,22.00143-28.6985,23.48909-39.008S775.72886,772.7474,745.61768,764.46833Z"/><path class="cls-7" d="M1340.91494,814.39326c-6.81416.96692-4.83285,12.15984-4.83285,16.52491s-2.49431,21.20176-3.42969,26.19038-3.894,6.929-7.01205,8.64388c-3.11785,1.71484-6.70674,14.11692.62042,21.59986,7.327,7.48293,21.50434.46762,26.57554,0,5.0712-.46777,10.52744-5.14455,10.52744-5.14455s7.83823,2.3988,10.66447-2.05466-.08555-8.90692,0-9.50636c.0857-.59959,4.7961,1.45582,7.10845-4.62485s-1.88416-6.50887-1.96986-8.47858c-.0857-1.96986,10.19149.17125,11.21927-7.45095,1.02778-7.62227-5.30984-7.02277-5.30984-8.47869s5.19275-.94209,5.42262-4.02524c.22972-3.08314-2.16819-10.61975-4.65193-11.21924-2.4836-.5995-6.93706-1.45594-8.05039.68515s-.59944,4.1965-.77083,4.88165c-.17125.68514-2.39791,1.45593-5.56679,1.71286-3.16874.25692-15.24439,3.25444-16.9573,1.71286s-6.76582-4.28215-6.76582-7.5366S1347.45431,813.46531,1340.91494,814.39326Z"/><path class="cls-6" d="M963.07482,534.54084a9.15069,9.15069,0,0,0-1.31091.71921c-1.99426,2.51513-1.99843,10.58546,6.01581,21.26942,7.96617,10.62,16.17575,13.8149,20.1546,14.31882a6.62891,6.62891,0,0,0,1.30987-2.08189c1.54-4.32685-3.085-15.05916-9.0746-22.07552C974.18027,539.67482,967.97521,533.02714,963.07482,534.54084Z"/><path class="cls-11" d="M967.77972,556.52932c-8.01126-10.6798-8.00992-18.74774-6.01789-21.2663-15.43141,8.66976-34.865,26.74843-36.695,35.89935-1.88267,9.41188,9.927,22.41771,16.51438,22.07536,6.58772-.34234,21.98923-8.43454,29.17653-11.91794,6.05-2.93233,13.90284-6.75629,17.16144-10.47388C983.93479,570.33618,975.73637,567.1368,967.77972,556.52932Z"/><path class="cls-12" d="M1011.58186,512.09307c-3.15922-3.31781-3.62817-3.93451-4.44662-5.433-.81829-1.49852-.5368-4.87228-.45333-5.23322.08361-.36079,1.56086-.68811.59527-1.38083-.96574-.69258-1.75443.49573-1.75443.49573a7.5057,7.5057,0,0,1,.55972,2.49967,5.662,5.662,0,0,0-.237,4.40823c.8726,2.152,2.68535,2.81642,4.55552,4.73,1.87033,1.91377.59349,3.605.0488,5.6943-.54468,2.08917.35633,5.08815-1.61858,7.48665-1.97463,2.39879-3.23257.60643-3.37569-.42789-.14328-1.03448-1.585-4.02527-2.40683-4.568-.82172-.54291-1.63287.1333-2.25508,1.13073a1.26828,1.26828,0,0,0,.93747,2.07c.93747-.0729-.66-1.28175.62875-2.24257,1.28859-.96039,1.55684,1.99455,3.04391,7.09357,1.48751,5.09932-5.931,3.81058-9.86343,2.93664s-1.86318,2.557-.48979,5.48868c1.37325,2.93157-5.26074,3.45692-10.91457,6.49309-3.72547,2.00036-12.19512,5.56664-18.928,9.42378.74762,1.21539,1.5982,2.47289,2.57183,3.77071,6.35592,8.47337,12.85943,12.21223,17.25278,13.63666,4.95738-3.564,8.45388-8.04756,8.04562-8.6348-.83168-1.196.53026-2.14244-.91991-2.51142-1.45031-.36927-4.67068,3.80849-6.76536,1.635-2.09484-2.17383-.165-2.05749,2.6474-6.60215,2.81256-4.54481,13.20386-8.948,15.354-9.86641,2.15033-.91842.94893-6.10507,2.837-6.24239,1.888-.13718,7.9446-6.60558,9.63-11.13864C1017.54663,522.27236,1014.74107,515.41089,1011.58186,512.09307Z"/><path class="cls-13" d="M989.46171,567.88264a7.26492,7.26492,0,0,0,.08034-1.01915A7.26663,7.26663,0,0,1,989.46171,567.88264Z"/><path class="cls-14" d="M989.24419,568.7664a5.1775,5.1775,0,0,1-.473.94906A5.21109,5.21109,0,0,0,989.24419,568.7664Z"/><path class="cls-15" d="M988.57765,570.00024a8.53963,8.53963,0,0,1-.5252.69242A8.50518,8.50518,0,0,0,988.57765,570.00024Z"/><path class="cls-16" d="M622.82687,1403.114c-1.75592-3.44651-13.20862-6.39133-19.77046-8.01051-6.56168-1.619-25.56517-4.43129-29.99646-4.43129s-14.23119-11.50419-15.93563-14.8278c-1.70428-3.32347-5.58538-10.05253-6.3028-10.27109s-1.61487,2.48-1.61487,2.48-.25784,27.99818,3.98242,29.05825,30.67937,1.73389,34.16605,3.30859c3.48653,1.57454,8.68672,4.60149,13.33136,4.66591,4.64449.06458,5.80573-1.41922,6.96682-1.41922,1.16123,0,2.51588,2.06434,7.80549,1.80635C620.7484,1405.215,624.18643,1405.78264,622.82687,1403.114Z"/><path class="cls-17" d="M549.86858,1385.528c4.21957-3.18317,15.15259,2.55561,26.10227,0,3.7402-.873,7.98938-7.079,12.23068-2.55992,4.24145,4.51907,1.1837,12.80453-1.28219,15.665-2.4659,2.86031-13.55915,6.0588-18.83939,5.42485-5.28023-.63381-18.938-.19729-23.17932-2.86031-4.24129-2.66318-.69049-7.595,1.47948-11.83627C548.55008,1385.11994,548.66777,1386.43383,549.86858,1385.528Z"/><path class="cls-18" d="M542.28908,1372.89759c-3.72146,6.34-8.51443,19.69264-12.54625,20.02859s-9.67641,1.27669-10.5499,5.98055c-.87349,4.70371,13.84257,12.22979,25.46757,11.35615,11.625-.8735,13.84258-4.70371,16.79915-4.36777,2.95672.336,3.56152-1.47828,3.56152-1.47828s-9.47482-4.50226-14.51447-4.63661c-5.03981-.13435-5.8462-.53755-4.70386-3.15817,1.14234-2.62078,3.96457-6.2494,5.0398-9.81076,1.0751-3.56152.24386-20.62-.02112-21.238-.265-.61819-.839-.08838-1.3246,0-.48577.08822-.30917-.70656-1.14814-.66238-.83883.04419-.26483.48563-.97139.48563-.70641,0-1.5012-1.10381-2.2518-.044-.7506,1.05961-2.29614,2.78175-2.38436,4.72453A9.24131,9.24131,0,0,1,542.28908,1372.89759Z"/><path class="cls-19" d="M1493.01233,1388.36694l-.74,11.70236a11.88035,11.88035,0,0,0,11.10679,12.6065l15.59715.98642a11.8804,11.8804,0,0,0,12.62912-11.69061l-26.42423-300.60483C1505.267,1095.2324,1493.84609,1375.18346,1493.01233,1388.36694Z"/><path class="cls-18" d="M1372.03083,1093.93592l-36.51024,323.61841a12.95328,12.95328,0,0,0,12.05394,14.37953l17.00565,1.07553a12.953,12.953,0,0,0,13.74483-12.10987l.807-12.759a26.07825,26.07825,0,0,1,27.6722-24.38028l27.30517,1.7269a26.07815,26.07815,0,0,1,24.38013,27.6722l-.80684,12.75916a12.95308,12.95308,0,0,0,12.10973,13.74482l17.00551,1.07554a12.95326,12.95326,0,0,0,13.76952-12.74636l4.55136-325.6396a12.546,12.546,0,0,0-11.7528-12.69622l-108.07639-6.83514A12.54592,12.54592,0,0,0,1372.03083,1093.93592Z"/><path class="cls-18" d="M1390.44679,1052.8593l-3.36349,53.18143,13.85923.87647,3.0088-47.574a8.44093,8.44093,0,0,1,8.95691-7.89134l57.01121,3.60555a8.441,8.441,0,0,1,7.89134,8.95691l-3.0088,47.574,13.85924.87661,3.36349-53.18143a16.68678,16.68678,0,0,0-15.60013-17.70657l-68.27139-4.31777A16.68655,16.68655,0,0,0,1390.44679,1052.8593Z"/><path class="cls-19" d="M1478.4992,1273.17793l-101.57749-6.42406a6.47537,6.47537,0,0,1-4.98342-10.04762l56.35226-84.75736a6.47519,6.47519,0,0,1,11.19308.7079l45.22523,91.18157a6.47528,6.47528,0,0,1-6.20966,9.33957Zm-89.567-18.641,79.19131,5.00841-35.25825-71.08648Z"/></svg>